<svg xmlns="http://www.w3.org/2000/svg" width="450" height="100" viewBox="0 0 450 100"><rect width="100%" height="100%" fill="#FFA500"/><path fill="#000000" d="M149.05 31.225h6.18v37.15h-6.18zm25.9 30.52v-4.32q-2.67.12-4.5.46-1.82.34-2.92.86-1.1.53-1.58 1.23-.47.7-.47 1.52 0 1.63.96 2.33t2.51.7q1.9 0 3.29-.69t2.71-2.09m-13.05-13.47-1.1-1.98q4.43-4.05 10.65-4.05 2.25 0 4.03.74 1.77.74 3 2.05 1.22 1.31 1.86 3.14.64 1.82.64 4v16.2h-2.8q-.88 0-1.35-.26-.48-.27-.75-1.07l-.55-1.85q-.98.88-1.9 1.54-.93.66-1.93 1.11t-2.14.69q-1.13.24-2.51.24-1.62 0-3-.44-1.37-.44-2.37-1.31-1-.88-1.55-2.18t-.55-3.02q0-.98.32-1.94.33-.96 1.06-1.84.74-.87 1.92-1.65 1.17-.77 2.88-1.35 1.72-.57 3.99-.93 2.28-.37 5.2-.44v-1.5q0-2.58-1.1-3.81-1.1-1.24-3.17-1.24-1.5 0-2.49.35t-1.74.79l-1.36.78q-.61.35-1.36.35-.65 0-1.1-.33-.45-.34-.73-.79m30.33-4 .37 2.9q1.2-2.3 2.85-3.61 1.65-1.32 3.9-1.32 1.78 0 2.85.78l-.4 4.62q-.12.45-.36.64t-.64.19q-.37 0-1.11-.13-.74-.12-1.44-.12-1.02 0-1.82.3t-1.44.86-1.13 1.36q-.48.81-.91 1.83v15.8h-6.17v-25.65h3.62q.95 0 1.33.34.37.33.5 1.21m24.55-1.95q2.85 0 5.19.92 2.33.93 4 2.63 1.66 1.7 2.56 4.15t.9 5.47q0 3.05-.9 5.5t-2.56 4.18q-1.67 1.72-4 2.65-2.34.93-5.19.93-2.88 0-5.23-.93t-4.01-2.65q-1.66-1.73-2.57-4.18-.92-2.45-.92-5.5 0-3.02.92-5.47.91-2.45 2.57-4.15t4.01-2.63q2.35-.92 5.23-.92m0 21.67q3.2 0 4.73-2.15 1.54-2.15 1.54-6.3t-1.54-6.32q-1.53-2.18-4.73-2.18-3.25 0-4.82 2.19-1.56 2.19-1.56 6.31 0 4.13 1.56 6.29 1.57 2.16 4.82 2.16m37.37-18.1-1.62 2.25q-.28.35-.54.55t-.76.2q-.48 0-.93-.28-.45-.29-1.07-.65-.63-.37-1.49-.65-.86-.29-2.14-.29-1.62 0-2.85.59-1.22.58-2.03 1.69-.82 1.09-1.22 2.66-.4 1.56-.4 3.53 0 2.05.44 3.66.44 1.59 1.26 2.68.83 1.09 2 1.65 1.18.56 2.65.56 1.48 0 2.39-.36t1.54-.8q.62-.44 1.09-.8.46-.36 1.03-.36.75 0 1.13.57l1.77 2.25q-1.02 1.2-2.22 2.02-1.2.81-2.49 1.3-1.29.48-2.65.69-1.36.2-2.71.2-2.38 0-4.48-.89t-3.67-2.59q-1.58-1.7-2.49-4.16-.91-2.47-.91-5.62 0-2.82.81-5.23.81-2.42 2.39-4.18 1.57-1.76 3.9-2.76 2.32-1 5.35-1 2.87 0 5.04.92 2.16.93 3.88 2.65m17.65 15.85v-4.32q-2.67.12-4.5.46-1.82.34-2.92.86-1.1.53-1.58 1.23-.47.7-.47 1.52 0 1.63.96 2.33t2.51.7q1.9 0 3.29-.69t2.71-2.09m-13.05-13.47-1.1-1.98q4.43-4.05 10.65-4.05 2.25 0 4.03.74 1.77.74 3 2.05 1.22 1.31 1.86 3.14.64 1.82.64 4v16.2h-2.8q-.88 0-1.35-.26-.48-.27-.75-1.07l-.55-1.85q-.98.88-1.9 1.54-.93.66-1.93 1.11t-2.13.69q-1.14.24-2.52.24-1.62 0-3-.44-1.37-.44-2.37-1.31-1-.88-1.55-2.18t-.55-3.02q0-.98.32-1.94.33-.96 1.07-1.84.73-.87 1.91-1.65 1.17-.77 2.89-1.35 1.71-.57 3.98-.93 2.28-.37 5.2-.44v-1.5q0-2.58-1.1-3.81-1.1-1.24-3.17-1.24-1.5 0-2.49.35t-1.74.79l-1.36.78q-.61.35-1.36.35-.65 0-1.1-.33-.45-.34-.73-.79m41.93-2.78-1.4 2.23q-.25.4-.53.56-.27.16-.7.16-.45 0-.96-.25t-1.19-.56q-.67-.31-1.53-.56-.87-.25-2.04-.25-1.83 0-2.86.77-1.04.78-1.04 2.03 0 .82.54 1.39.53.56 1.42.98.89.43 2.01.77 1.13.33 2.29.73t2.29.92q1.12.51 2.01 1.3.89.78 1.43 1.88.53 1.1.53 2.65 0 1.85-.66 3.42-.66 1.56-1.96 2.7-1.3 1.13-3.21 1.77-1.92.64-4.42.64-1.32 0-2.58-.24-1.27-.24-2.43-.66-1.16-.43-2.15-1-.99-.58-1.74-1.25l1.43-2.35q.27-.43.65-.65.37-.23.95-.23.57 0 1.09.33.51.32 1.18.7.68.37 1.59.7.91.32 2.31.32 1.1 0 1.89-.26t1.3-.69q.51-.42.75-.98.24-.57.24-1.17 0-.9-.54-1.47-.54-.58-1.42-1-.89-.43-2.03-.76-1.14-.34-2.32-.74-1.19-.4-2.33-.94t-2.02-1.36q-.89-.83-1.43-2.03t-.54-2.9q0-1.57.63-3 .62-1.42 1.84-2.48 1.21-1.07 3.02-1.7 1.81-.64 4.19-.64 2.65 0 4.82.87 2.18.88 3.63 2.3"/></svg>